<?xml version="1.0" encoding="UTF-8"?>
<svg id="Camada_1" xmlns="http://www.w3.org/2000/svg" version="1.1" viewBox="0 0 475.6 249.4">
  <!-- Generator: Adobe Illustrator 29.4.0, SVG Export Plug-In . SVG Version: 2.1.0 Build 152)  -->
  <defs>
    <style>
      .st0 {
        font-family: Gilroy-Light, Gilroy;
        font-size: 40.9px;
        font-weight: 300;
      }

      .st0, .st1 {
        fill: #23398e;
      }
    </style>
  </defs>
  <g>
    <path class="st1" d="M208.1,131.7h-9.6v16.1c0,1.8.8,3,2.2,3.5s3.9.7,7.3.5v12.4c-8.8.9-15,.1-18.3-2.5-3.4-2.6-5.1-7.2-5.1-13.8v-16.1h-7.4v-13.1h7.4v-8.6l13.9-4.1v12.7h9.6v13.1h0Z"/>
    <path class="st1" d="M248.7,118.6h13.9v45.5h-13.9v-4.3c-3.3,3.7-7.9,5.6-13.8,5.6s-11.3-2.3-15.6-7c-4.3-4.6-6.5-10.3-6.5-17s2.1-12.4,6.5-17c4.3-4.6,9.6-7,15.6-7s10.5,1.9,13.8,5.6v-4.3ZM229.7,149.4c2,2,4.7,3,8,3s5.9-1,8-3,3.1-4.7,3.1-8.1-1-6.1-3.1-8.1-4.7-3-8-3-5.9,1-8,3-3.1,4.7-3.1,8.1c0,3.4,1.1,6.1,3.1,8.1Z"/>
    <path class="st1" d="M300,131.7h-9.6v16.1c0,1.8.8,3,2.2,3.5s3.9.7,7.3.5v12.4c-8.8.9-15,.1-18.3-2.5-3.4-2.6-5.1-7.2-5.1-13.8v-16.1h-7.4v-13.1h7.4v-8.6l13.9-4.1v12.7h9.6v13.1h0Z"/>
    <path class="st1" d="M319.3,146.7c1.6,4.3,5.3,6.4,11.1,6.4s6.7-1.2,8.9-3.5l11.1,6.3c-4.5,6.3-11.3,9.4-20.2,9.4s-14-2.3-18.7-6.8c-4.6-4.6-7-10.3-7-17.2s2.3-12.5,6.9-17.1c4.6-4.6,10.5-6.9,17.7-6.9s12.3,2.3,16.8,6.9c4.5,4.6,6.7,10.3,6.7,17.1s-.2,3.8-.6,5.5h-32.9ZM319,136.6h19.9c-1.4-4.8-4.6-7.2-9.8-7.2s-8.7,2.4-10.1,7.2Z"/>
    <path class="st1" d="M382.4,165.3c-7.1,0-12.9-2.3-17.6-6.9-4.6-4.6-7-10.3-7-17.1s2.4-12.5,7-17.1c4.6-4.6,10.5-6.9,17.6-6.9s8.5,1.1,12.3,3.2c3.7,2.1,6.6,5,8.7,8.5l-12.1,7c-1.7-3.4-4.6-5.1-9-5.1s-5.5,1-7.5,3-3,4.5-3,7.6,1,5.6,3,7.6c2,2,4.5,3,7.5,3,4.4,0,7.4-1.7,9-5.1l12.2,6.8c-2,3.6-4.9,6.4-8.6,8.5-3.7,2.2-7.8,3.3-12.4,3.3Z"/>
    <path class="st1" d="M436,117.3c5,0,9,1.7,12.4,5,3.3,3.3,5,7.9,5,13.8v27.9h-13.9v-25.9c0-2.7-.8-4.7-2.2-6.1-1.5-1.4-3.4-2.2-5.8-2.2s-4.8.8-6.3,2.4-2.3,3.9-2.3,7v24.8h-13.9v-63.6h13.9v22.5c2.7-3.7,7.2-5.6,13.2-5.6Z"/>
    <path class="st1" d="M131.3,100.5h-18.9l-22,63.6h5.5c6.4,0,12.1-4.1,14-10h0s12.1-37,12.1-37l12.9,37h0c2.1,6,7.8,10,14.3,10h4.4l-22.1-63.6Z"/>
    <path class="st1" d="M172.3,150.2c1.2,1,3,1.4,5.6,1.3v12.9c-7.2.4-12.5-.9-15.9-4-3.4-3.1-5.1-8.2-5.1-15.2v-44.9h13.7v44.9c0,2.3.6,4,1.7,5Z"/>
  </g>
  <text class="st0" transform="translate(122.8 207.8)"><tspan x="0" y="0">Object Storage</tspan></text>
  <path class="st1" d="M122.9,226.5h-37.6c-27.9.1-50.7-22.3-51.2-50.2-.4-27.9,21.7-51,49.6-51.7,1.8,0,3.5-1,4.5-2.5,1-1.5,1.3-3.4.7-5.1-11.2-32.2,5.5-67.4,37.5-79,32-11.6,67.5,4.7,79.5,36.6.5,1.5,1.7,2.7,3.1,3.3,1.5.6,3.1.6,4.5,0,5.9-2.8,12.4-4.2,18.9-4.2,16.2,0,30.7,8.6,38.8,21.9h12.8c-9.1-20-29.1-33.2-51.6-33.2-6.2,0-12.4,1-18.2,3-14.5-31.4-48.9-48.4-82.6-41-33.8,7.4-57.8,37.4-57.8,71.9,0,6,.7,11.9,2.2,17.7-32.2,4.9-55.1,33.7-52.7,66.2,2.4,32.4,29.3,57.6,61.9,57.7h209.6c13.9,0,26.8-4.2,37.6-11.3H122.9Z"/>
</svg>