<svg width="476" height="250" viewBox="0 0 476 250" fill="none" xmlns="http://www.w3.org/2000/svg">
<path d="M208.1 131.7H198.5V147.8C198.5 149.6 199.3 150.8 200.7 151.3C202.1 151.8 204.6 152 208 151.8V164.2C199.2 165.1 193 164.3 189.7 161.7C186.3 159.1 184.6 154.5 184.6 147.9V131.8H177.2V118.7H184.6V110.1L198.5 106V118.7H208.1V131.8V131.7Z" fill="white"/>
<path d="M248.7 118.6H262.6V164.1H248.7V159.8C245.4 163.5 240.8 165.4 234.9 165.4C229 165.4 223.6 163.1 219.3 158.4C215 153.8 212.8 148.1 212.8 141.4C212.8 134.7 214.9 129 219.3 124.4C223.6 119.8 228.9 117.4 234.9 117.4C240.9 117.4 245.4 119.3 248.7 123V118.7V118.6ZM229.7 149.4C231.7 151.4 234.4 152.4 237.7 152.4C241 152.4 243.6 151.4 245.7 149.4C247.8 147.4 248.8 144.7 248.8 141.3C248.8 137.9 247.8 135.2 245.7 133.2C243.6 131.2 241 130.2 237.7 130.2C234.4 130.2 231.8 131.2 229.7 133.2C227.6 135.2 226.6 137.9 226.6 141.3C226.6 144.7 227.7 147.4 229.7 149.4Z" fill="white"/>
<path d="M300 131.7H290.4V147.8C290.4 149.6 291.2 150.8 292.6 151.3C294 151.8 296.5 152 299.9 151.8V164.2C291.1 165.1 284.9 164.3 281.6 161.7C278.2 159.1 276.5 154.5 276.5 147.9V131.8H269.1V118.7H276.5V110.1L290.4 106V118.7H300V131.8V131.7Z" fill="white"/>
<path d="M319.3 146.7C320.9 151 324.6 153.1 330.4 153.1C336.2 153.1 337.1 151.9 339.3 149.6L350.4 155.9C345.9 162.2 339.1 165.3 330.2 165.3C321.3 165.3 316.2 163 311.5 158.5C306.9 153.9 304.5 148.2 304.5 141.3C304.5 134.4 306.8 128.8 311.4 124.2C316 119.6 321.9 117.3 329.1 117.3C336.3 117.3 341.4 119.6 345.9 124.2C350.4 128.8 352.6 134.5 352.6 141.3C352.6 148.1 352.4 145.1 352 146.8H319.1L319.3 146.7ZM319 136.6H338.9C337.5 131.8 334.3 129.4 329.1 129.4C323.9 129.4 320.4 131.8 319 136.6Z" fill="white"/>
<path d="M382.4 165.3C375.3 165.3 369.5 163 364.8 158.4C360.2 153.8 357.8 148.1 357.8 141.3C357.8 134.5 360.2 128.8 364.8 124.2C369.4 119.6 375.3 117.3 382.4 117.3C389.5 117.3 390.9 118.4 394.7 120.5C398.4 122.6 401.3 125.5 403.4 129L391.3 136C389.6 132.6 386.7 130.9 382.3 130.9C377.9 130.9 376.8 131.9 374.8 133.9C372.8 135.9 371.8 138.4 371.8 141.5C371.8 144.6 372.8 147.1 374.8 149.1C376.8 151.1 379.3 152.1 382.3 152.1C386.7 152.1 389.7 150.4 391.3 147L403.5 153.8C401.5 157.4 398.6 160.2 394.9 162.3C391.2 164.5 387.1 165.6 382.5 165.6L382.4 165.3Z" fill="white"/>
<path d="M436 117.3C441 117.3 445 119 448.4 122.3C451.7 125.6 453.4 130.2 453.4 136.1V164H439.5V138.1C439.5 135.4 438.7 133.4 437.3 132C435.8 130.6 433.9 129.8 431.5 129.8C429.1 129.8 426.7 130.6 425.2 132.2C423.7 133.8 422.9 136.1 422.9 139.2V164H409V100.4H422.9V122.9C425.6 119.2 430.1 117.3 436.1 117.3H436Z" fill="white"/>
<path d="M131.3 100.5H112.4L90.4 164.1H95.9C102.3 164.1 108 160 109.9 154.1L122 117.1L134.9 154.1C137 160.1 142.7 164.1 149.2 164.1H153.6L131.5 100.5H131.3Z" fill="white"/>
<path d="M172.3 150.2C173.5 151.2 175.3 151.6 177.9 151.5V164.4C170.7 164.8 165.4 163.5 162 160.4C158.6 157.3 156.9 152.2 156.9 145.2V100.3H170.6V145.2C170.6 147.5 171.2 149.2 172.3 150.2Z" fill="white"/>
<path d="M131.22 203.436C131.22 204.357 131.054 205.152 130.722 205.823C130.389 206.493 129.934 207.01 129.354 207.374C128.774 207.737 128.112 207.919 127.368 207.919C126.624 207.919 125.962 207.737 125.382 207.374C124.803 207.01 124.347 206.493 124.014 205.823C123.682 205.152 123.516 204.357 123.516 203.436C123.516 202.516 123.682 201.72 124.014 201.05C124.347 200.379 124.803 199.862 125.382 199.499C125.962 199.135 126.624 198.953 127.368 198.953C128.112 198.953 128.774 199.135 129.354 199.499C129.934 199.862 130.389 200.379 130.722 201.05C131.054 201.72 131.22 202.516 131.22 203.436ZM130.198 203.436C130.198 202.68 130.071 202.043 129.818 201.523C129.568 201.003 129.229 200.609 128.8 200.342C128.374 200.075 127.897 199.942 127.368 199.942C126.84 199.942 126.361 200.075 125.932 200.342C125.506 200.609 125.166 201.003 124.914 201.523C124.664 202.043 124.539 202.68 124.539 203.436C124.539 204.192 124.664 204.83 124.914 205.35C125.166 205.869 125.506 206.263 125.932 206.53C126.361 206.797 126.84 206.93 127.368 206.93C127.897 206.93 128.374 206.797 128.8 206.53C129.229 206.263 129.568 205.869 129.818 205.35C130.071 204.83 130.198 204.192 130.198 203.436ZM132.997 207.8V199.073H134.003V202.294H134.088C134.162 202.18 134.264 202.036 134.395 201.859C134.529 201.68 134.719 201.521 134.966 201.382C135.216 201.24 135.554 201.169 135.98 201.169C136.532 201.169 137.017 201.307 137.438 201.582C137.858 201.858 138.186 202.249 138.422 202.754C138.658 203.26 138.776 203.857 138.776 204.544C138.776 205.237 138.658 205.838 138.422 206.347C138.186 206.852 137.86 207.244 137.442 207.523C137.024 207.798 136.543 207.936 135.997 207.936C135.577 207.936 135.24 207.867 134.987 207.727C134.735 207.585 134.54 207.425 134.404 207.246C134.267 207.064 134.162 206.913 134.088 206.794H133.969V207.8H132.997ZM133.986 204.527C133.986 205.021 134.059 205.457 134.203 205.835C134.348 206.21 134.56 206.504 134.838 206.717C135.117 206.928 135.458 207.033 135.861 207.033C136.282 207.033 136.632 206.922 136.914 206.7C137.198 206.476 137.411 206.175 137.553 205.797C137.698 205.416 137.77 204.993 137.77 204.527C137.77 204.067 137.699 203.652 137.557 203.283C137.418 202.911 137.206 202.617 136.922 202.401C136.641 202.182 136.287 202.073 135.861 202.073C135.452 202.073 135.108 202.176 134.83 202.384C134.551 202.588 134.341 202.875 134.199 203.244C134.057 203.611 133.986 204.038 133.986 204.527ZM140.314 201.254H141.32V208.277C141.32 208.68 141.25 209.03 141.111 209.325C140.975 209.621 140.767 209.85 140.489 210.011C140.213 210.173 139.865 210.254 139.445 210.254C139.411 210.254 139.377 210.254 139.343 210.254C139.309 210.254 139.274 210.254 139.24 210.254V209.317C139.274 209.317 139.306 209.317 139.334 209.317C139.362 209.317 139.394 209.317 139.428 209.317C139.735 209.317 139.959 209.226 140.101 209.044C140.243 208.865 140.314 208.609 140.314 208.277V201.254ZM140.809 200.163C140.612 200.163 140.443 200.097 140.301 199.963C140.162 199.83 140.093 199.669 140.093 199.482C140.093 199.294 140.162 199.134 140.301 199C140.443 198.867 140.612 198.8 140.809 198.8C141.005 198.8 141.172 198.867 141.311 199C141.453 199.134 141.524 199.294 141.524 199.482C141.524 199.669 141.453 199.83 141.311 199.963C141.172 200.097 141.005 200.163 140.809 200.163ZM145.906 207.936C145.275 207.936 144.731 207.797 144.274 207.519C143.82 207.237 143.469 206.845 143.222 206.342C142.977 205.837 142.855 205.249 142.855 204.578C142.855 203.908 142.977 203.317 143.222 202.805C143.469 202.291 143.812 201.891 144.253 201.604C144.696 201.314 145.213 201.169 145.804 201.169C146.145 201.169 146.481 201.226 146.814 201.34C147.146 201.453 147.449 201.638 147.722 201.894C147.994 202.146 148.212 202.482 148.373 202.899C148.535 203.317 148.616 203.831 148.616 204.442V204.868H143.571V203.999H147.594C147.594 203.629 147.52 203.3 147.372 203.01C147.227 202.72 147.02 202.492 146.75 202.324C146.483 202.156 146.168 202.073 145.804 202.073C145.403 202.073 145.057 202.172 144.764 202.371C144.474 202.567 144.251 202.823 144.095 203.138C143.939 203.453 143.861 203.791 143.861 204.152V204.732C143.861 205.226 143.946 205.645 144.116 205.989C144.29 206.33 144.53 206.59 144.837 206.769C145.143 206.945 145.5 207.033 145.906 207.033C146.17 207.033 146.409 206.996 146.622 206.922C146.838 206.845 147.024 206.732 147.18 206.581C147.337 206.428 147.457 206.237 147.543 206.01L148.514 206.283C148.412 206.612 148.24 206.902 147.998 207.152C147.757 207.399 147.459 207.592 147.104 207.732C146.748 207.868 146.349 207.936 145.906 207.936ZM152.805 207.936C152.192 207.936 151.663 207.791 151.22 207.502C150.777 207.212 150.436 206.813 150.197 206.304C149.959 205.796 149.839 205.215 149.839 204.561C149.839 203.896 149.962 203.31 150.206 202.801C150.453 202.29 150.797 201.891 151.237 201.604C151.68 201.314 152.197 201.169 152.788 201.169C153.248 201.169 153.663 201.254 154.033 201.425C154.402 201.595 154.704 201.834 154.94 202.141C155.176 202.448 155.322 202.805 155.379 203.215H154.373C154.297 202.916 154.126 202.652 153.862 202.422C153.601 202.189 153.248 202.073 152.805 202.073C152.413 202.073 152.07 202.175 151.774 202.379C151.481 202.581 151.253 202.867 151.088 203.236C150.926 203.602 150.845 204.033 150.845 204.527C150.845 205.033 150.925 205.473 151.084 205.848C151.246 206.223 151.473 206.514 151.766 206.722C152.061 206.929 152.408 207.033 152.805 207.033C153.067 207.033 153.304 206.987 153.517 206.896C153.73 206.805 153.91 206.675 154.058 206.504C154.206 206.334 154.311 206.129 154.373 205.891H155.379C155.322 206.277 155.182 206.625 154.957 206.935C154.736 207.242 154.442 207.486 154.075 207.668C153.712 207.847 153.288 207.936 152.805 207.936ZM159.696 201.254V202.107H156.304V201.254H159.696ZM157.293 199.686H158.298V205.925C158.298 206.209 158.339 206.422 158.422 206.564C158.507 206.703 158.615 206.797 158.746 206.845C158.879 206.891 159.02 206.913 159.168 206.913C159.278 206.913 159.369 206.908 159.44 206.896C159.511 206.882 159.568 206.871 159.611 206.862L159.815 207.766C159.747 207.791 159.652 207.817 159.53 207.842C159.408 207.871 159.253 207.885 159.065 207.885C158.781 207.885 158.503 207.824 158.23 207.702C157.96 207.58 157.736 207.394 157.557 207.144C157.381 206.894 157.293 206.578 157.293 206.198V199.686ZM169.493 201.254C169.442 200.823 169.234 200.487 168.871 200.249C168.507 200.01 168.061 199.891 167.533 199.891C167.146 199.891 166.808 199.953 166.518 200.078C166.231 200.203 166.007 200.375 165.845 200.594C165.686 200.813 165.606 201.061 165.606 201.34C165.606 201.573 165.662 201.773 165.773 201.94C165.886 202.105 166.031 202.243 166.207 202.354C166.383 202.462 166.568 202.551 166.761 202.622C166.954 202.69 167.132 202.746 167.294 202.788L168.18 203.027C168.408 203.087 168.66 203.169 168.939 203.274C169.22 203.379 169.489 203.523 169.744 203.705C170.003 203.884 170.216 204.114 170.383 204.395C170.551 204.676 170.635 205.021 170.635 205.43C170.635 205.902 170.511 206.328 170.264 206.709C170.02 207.09 169.662 207.392 169.19 207.617C168.722 207.841 168.152 207.953 167.481 207.953C166.856 207.953 166.315 207.852 165.858 207.651C165.403 207.449 165.045 207.168 164.784 206.807C164.525 206.446 164.379 206.027 164.345 205.55H165.436C165.464 205.879 165.575 206.152 165.768 206.368C165.964 206.581 166.212 206.74 166.51 206.845C166.811 206.948 167.135 206.999 167.481 206.999C167.885 206.999 168.247 206.933 168.568 206.803C168.889 206.669 169.143 206.484 169.331 206.249C169.518 206.01 169.612 205.732 169.612 205.413C169.612 205.124 169.531 204.888 169.369 204.706C169.207 204.524 168.994 204.377 168.73 204.263C168.466 204.149 168.18 204.05 167.873 203.965L166.8 203.658C166.118 203.462 165.578 203.182 165.18 202.818C164.783 202.455 164.584 201.979 164.584 201.391C164.584 200.902 164.716 200.476 164.98 200.112C165.247 199.746 165.605 199.462 166.054 199.26C166.506 199.055 167.01 198.953 167.567 198.953C168.129 198.953 168.629 199.054 169.067 199.256C169.504 199.455 169.851 199.727 170.106 200.074C170.365 200.421 170.501 200.814 170.516 201.254H169.493ZM175.083 201.254V202.107H171.691V201.254H175.083ZM172.679 199.686H173.685V205.925C173.685 206.209 173.726 206.422 173.809 206.564C173.894 206.703 174.002 206.797 174.132 206.845C174.266 206.891 174.407 206.913 174.554 206.913C174.665 206.913 174.756 206.908 174.827 206.896C174.898 206.882 174.955 206.871 174.997 206.862L175.202 207.766C175.134 207.791 175.039 207.817 174.916 207.842C174.794 207.871 174.639 207.885 174.452 207.885C174.168 207.885 173.889 207.824 173.617 207.702C173.347 207.58 173.122 207.394 172.943 207.144C172.767 206.894 172.679 206.578 172.679 206.198V199.686ZM179.184 207.936C178.593 207.936 178.075 207.796 177.629 207.514C177.186 207.233 176.839 206.84 176.589 206.334C176.342 205.828 176.218 205.237 176.218 204.561C176.218 203.879 176.342 203.284 176.589 202.776C176.839 202.267 177.186 201.872 177.629 201.591C178.075 201.31 178.593 201.169 179.184 201.169C179.775 201.169 180.292 201.31 180.735 201.591C181.181 201.872 181.528 202.267 181.775 202.776C182.025 203.284 182.15 203.879 182.15 204.561C182.15 205.237 182.025 205.828 181.775 206.334C181.528 206.84 181.181 207.233 180.735 207.514C180.292 207.796 179.775 207.936 179.184 207.936ZM179.184 207.033C179.633 207.033 180.002 206.918 180.292 206.688C180.582 206.457 180.796 206.155 180.936 205.78C181.075 205.405 181.144 204.999 181.144 204.561C181.144 204.124 181.075 203.716 180.936 203.338C180.796 202.96 180.582 202.655 180.292 202.422C180.002 202.189 179.633 202.073 179.184 202.073C178.735 202.073 178.366 202.189 178.076 202.422C177.786 202.655 177.572 202.96 177.433 203.338C177.294 203.716 177.224 204.124 177.224 204.561C177.224 204.999 177.294 205.405 177.433 205.78C177.572 206.155 177.786 206.457 178.076 206.688C178.366 206.918 178.735 207.033 179.184 207.033ZM183.685 207.8V201.254H184.657V202.243H184.725C184.844 201.919 185.06 201.656 185.373 201.455C185.685 201.253 186.038 201.152 186.43 201.152C186.503 201.152 186.596 201.153 186.707 201.156C186.817 201.159 186.901 201.163 186.958 201.169V202.192C186.924 202.183 186.846 202.171 186.724 202.153C186.604 202.134 186.478 202.124 186.344 202.124C186.026 202.124 185.742 202.19 185.492 202.324C185.245 202.455 185.049 202.636 184.904 202.869C184.762 203.1 184.691 203.362 184.691 203.658V207.8H183.685ZM190.076 207.953C189.661 207.953 189.285 207.875 188.947 207.719C188.609 207.56 188.34 207.331 188.142 207.033C187.943 206.732 187.843 206.368 187.843 205.942C187.843 205.567 187.917 205.263 188.065 205.03C188.213 204.794 188.41 204.609 188.657 204.476C188.904 204.342 189.177 204.243 189.475 204.178C189.777 204.109 190.079 204.055 190.383 204.016C190.781 203.965 191.103 203.926 191.35 203.901C191.6 203.872 191.782 203.825 191.896 203.76C192.012 203.695 192.071 203.581 192.071 203.419V203.385C192.071 202.965 191.956 202.638 191.725 202.405C191.498 202.172 191.153 202.055 190.69 202.055C190.21 202.055 189.833 202.161 189.561 202.371C189.288 202.581 189.096 202.805 188.985 203.044L188.031 202.703C188.201 202.305 188.429 201.996 188.713 201.774C189 201.55 189.312 201.394 189.65 201.305C189.991 201.215 190.326 201.169 190.656 201.169C190.866 201.169 191.108 201.195 191.38 201.246C191.656 201.294 191.921 201.395 192.177 201.548C192.436 201.702 192.65 201.933 192.821 202.243C192.991 202.553 193.076 202.967 193.076 203.487V207.8H192.071V206.913H192.019C191.951 207.055 191.838 207.207 191.679 207.369C191.519 207.531 191.308 207.669 191.044 207.783C190.779 207.896 190.457 207.953 190.076 207.953ZM190.23 207.05C190.627 207.05 190.963 206.972 191.235 206.815C191.511 206.659 191.718 206.457 191.858 206.21C192 205.963 192.071 205.703 192.071 205.43V204.51C192.028 204.561 191.934 204.608 191.789 204.651C191.647 204.69 191.483 204.726 191.295 204.757C191.11 204.786 190.93 204.811 190.754 204.834C190.581 204.854 190.44 204.871 190.332 204.885C190.071 204.919 189.826 204.975 189.599 205.051C189.375 205.125 189.193 205.237 189.054 205.388C188.917 205.536 188.849 205.737 188.849 205.993C188.849 206.342 188.978 206.607 189.237 206.786C189.498 206.962 189.829 207.05 190.23 207.05ZM197.554 210.391C197.068 210.391 196.65 210.328 196.301 210.203C195.952 210.081 195.66 209.919 195.427 209.717C195.197 209.519 195.014 209.305 194.878 209.078L195.679 208.516C195.77 208.635 195.885 208.771 196.024 208.925C196.163 209.081 196.354 209.216 196.595 209.33C196.839 209.446 197.159 209.504 197.554 209.504C198.082 209.504 198.518 209.377 198.862 209.121C199.206 208.865 199.378 208.465 199.378 207.919V206.59H199.293C199.219 206.709 199.114 206.857 198.977 207.033C198.844 207.206 198.65 207.361 198.398 207.497C198.148 207.631 197.81 207.698 197.383 207.698C196.855 207.698 196.381 207.573 195.96 207.323C195.543 207.073 195.212 206.709 194.967 206.232C194.726 205.754 194.605 205.175 194.605 204.493C194.605 203.823 194.723 203.239 194.959 202.742C195.195 202.242 195.523 201.855 195.943 201.582C196.364 201.307 196.849 201.169 197.4 201.169C197.827 201.169 198.165 201.24 198.415 201.382C198.668 201.521 198.861 201.68 198.994 201.859C199.131 202.036 199.236 202.18 199.31 202.294H199.412V201.254H200.383V207.987C200.383 208.55 200.256 209.007 200 209.359C199.747 209.715 199.406 209.975 198.977 210.139C198.551 210.307 198.077 210.391 197.554 210.391ZM197.52 206.794C197.923 206.794 198.264 206.702 198.543 206.517C198.821 206.332 199.033 206.067 199.177 205.72C199.322 205.374 199.395 204.959 199.395 204.476C199.395 204.004 199.324 203.588 199.182 203.227C199.04 202.867 198.829 202.584 198.551 202.379C198.273 202.175 197.929 202.073 197.52 202.073C197.094 202.073 196.739 202.18 196.454 202.396C196.173 202.612 195.962 202.902 195.82 203.266C195.68 203.629 195.611 204.033 195.611 204.476C195.611 204.93 195.682 205.332 195.824 205.682C195.969 206.028 196.182 206.301 196.463 206.5C196.747 206.696 197.099 206.794 197.52 206.794ZM204.969 207.936C204.338 207.936 203.794 207.797 203.337 207.519C202.882 207.237 202.531 206.845 202.284 206.342C202.04 205.837 201.918 205.249 201.918 204.578C201.918 203.908 202.04 203.317 202.284 202.805C202.531 202.291 202.875 201.891 203.315 201.604C203.758 201.314 204.275 201.169 204.866 201.169C205.207 201.169 205.544 201.226 205.876 201.34C206.209 201.453 206.511 201.638 206.784 201.894C207.057 202.146 207.274 202.482 207.436 202.899C207.598 203.317 207.679 203.831 207.679 204.442V204.868H202.633V203.999H206.656C206.656 203.629 206.582 203.3 206.435 203.01C206.29 202.72 206.082 202.492 205.812 202.324C205.545 202.156 205.23 202.073 204.866 202.073C204.466 202.073 204.119 202.172 203.827 202.371C203.537 202.567 203.314 202.823 203.158 203.138C203.001 203.453 202.923 203.791 202.923 204.152V204.732C202.923 205.226 203.008 205.645 203.179 205.989C203.352 206.33 203.592 206.59 203.899 206.769C204.206 206.945 204.562 207.033 204.969 207.033C205.233 207.033 205.472 206.996 205.685 206.922C205.9 206.845 206.087 206.732 206.243 206.581C206.399 206.428 206.52 206.237 206.605 206.01L207.577 206.283C207.474 206.612 207.302 206.902 207.061 207.152C206.82 207.399 206.521 207.592 206.166 207.732C205.811 207.868 205.412 207.936 204.969 207.936Z" fill="white"/>
<path d="M122.9 226.5H85.3C57.4 226.6 34.6 204.2 34.1 176.3C33.7 148.4 55.8 125.3 83.7 124.6C85.5 124.6 87.2 123.6 88.2 122.1C89.2 120.6 89.5 118.7 88.9 117C77.7 84.8 94.4 49.6 126.4 38C158.4 26.4 193.9 42.7 205.9 74.6C206.4 76.1 207.6 77.3 209 77.9C210.5 78.5 212.1 78.5 213.5 77.9C219.4 75.1 225.9 73.7 232.4 73.7C248.6 73.7 263.1 82.3 271.2 95.6H284C274.9 75.6 254.9 62.4 232.4 62.4C226.2 62.4 220 63.4 214.2 65.4C199.7 34 165.3 17 131.6 24.4C97.8 31.8 73.8 61.8 73.8 96.3C73.8 102.3 74.5 108.2 76 114C43.8 118.9 20.9 147.7 23.3 180.2C25.7 212.6 52.6 237.8 85.2 237.9H294.8C308.7 237.9 321.6 233.7 332.4 226.6H122.9V226.5Z" fill="white"/>
</svg>
